<svg xmlns="http://www.w3.org/2000/svg" width="73.787" height="92.34" viewBox="0 0 73.787 92.34">
  <g id="Fairtrade_logo_black_BG-01" data-name="Fairtrade logo black BG-01" transform="translate(-20.087 7.985)">
    <path id="Path_207" data-name="Path 207" d="M142.3,429v7.353H140.68V429Z" transform="translate(-97.14 -351.999)" fill="#989899"/>
    <path id="Path_208" data-name="Path 208" d="M156.166,429l3.069,4.932h.021V429h1.513v7.353h-1.616l-3.059-4.924h-.021v4.924H154.56V429Z" transform="translate(-108.321 -351.999)" fill="#989899"/>
    <path id="Path_209" data-name="Path 209" d="M195.272,429a3.818,3.818,0,0,1,1.324.226,2.881,2.881,0,0,1,1.06.681,3.112,3.112,0,0,1,.7,1.132,4.563,4.563,0,0,1,.253,1.6,5.076,5.076,0,0,1-.206,1.484,3.259,3.259,0,0,1-.622,1.167,2.916,2.916,0,0,1-1.04.778,3.525,3.525,0,0,1-1.468.284H192.1V429Zm-.113,5.994a2.064,2.064,0,0,0,.679-.115,1.474,1.474,0,0,0,.583-.375,1.892,1.892,0,0,0,.412-.685,3.01,3.01,0,0,0,.156-1.031,4.3,4.3,0,0,0-.109-1,1.992,1.992,0,0,0-.356-.766,1.556,1.556,0,0,0-.653-.49,2.629,2.629,0,0,0-1-.169h-1.153v4.635Z" transform="translate(-138.56 -351.998)" fill="#989899"/>
    <path id="Path_210" data-name="Path 210" d="M231.306,429v7.353H229.69V429Z" transform="translate(-168.839 -351.999)" fill="#989899"/>
    <path id="Path_211" data-name="Path 211" d="M244.04,429l2.748,7.353H245.11l-.556-1.638h-2.748l-.583,1.638H239.6L242.381,429Zm.091,4.51-.926-2.7h-.027l-.957,2.7Z" transform="translate(-176.822 -351.999)" fill="#989899"/>
    <circle id="Ellipse_1" data-name="Ellipse 1" cx="32.687" cy="32.687" r="32.687" transform="matrix(0.138, -0.99, 0.99, 0.138, 20.087, 56.76)" fill="#fff"/>
    <path id="Path_212" data-name="Path 212" d="M78.188,18a31.736,31.736,0,1,0,31.734,31.735A31.736,31.736,0,0,0,78.188,18Z" transform="translate(-21.236 -20.931)"/>
    <path id="Path_213" data-name="Path 213" d="M161.965,80.212h0a29.173,29.173,0,0,0,6.828-18.8A28.866,28.866,0,0,0,140.268,32.53c-.214,0-.778.016-.778.016a25.362,25.362,0,0,0-6.356,1.048,15.562,15.562,0,0,0-6.177,3.61,13.524,13.524,0,0,0-3.818,9.436c0,5.984,4.123,10.922,9.678,13.18a53.016,53.016,0,0,0,6.91,2c3.328.809,10.335,1.98,16.167,5.834l.224.144c3.647,2.487,5.846,6.148,5.846,12.077M144.243,59.211a7.585,7.585,0,1,1,7.585-7.585A7.585,7.585,0,0,1,144.243,59.211Z" transform="translate(-83.011 -32.636)" fill="#00b8e3"/>
    <path id="Path_214" data-name="Path 214" d="M60.94,99.284A28.883,28.883,0,0,1,68.873,79.42a22.534,22.534,0,0,0-1.5,7.915,17.773,17.773,0,0,0,5.086,12.558l.722.764c5.628,5.928,10.685,11.247,10.685,18.336a18.766,18.766,0,0,1-1.958,7.974A28.82,28.82,0,0,1,60.94,99.284" transform="translate(-32.908 -70.406)" fill="#c2d840"/>
    <path id="Path_215" data-name="Path 215" d="M342.7,37.913a3.551,3.551,0,1,1,3.547-3.551A3.551,3.551,0,0,1,342.7,37.913Zm0-6.667a3.112,3.112,0,1,0,3.112,3.112A3.112,3.112,0,0,0,342.7,31.246Z" transform="translate(-257.003 -31.25)" fill="#fff"/>
    <path id="Path_216" data-name="Path 216" d="M349.224,38H351.3a1.157,1.157,0,0,1,1.293,1.167.972.972,0,0,1-.636.972c.336.15.519.274.519,1.04,0,.6,0,.747.183.817v.109h-.951a2.7,2.7,0,0,1-.091-.829c0-.56-.035-.778-.669-.778h-.885v1.606h-.84Zm1.846,1.807c.445,0,.663-.156.663-.56,0-.218-.1-.539-.6-.539h-1.068v1.1Z" transform="translate(-265.122 -37.042)" fill="#fff"/>
    <path id="Path_217" data-name="Path 217" d="M94.222,372.54V371H86.939v10.327h7.252v-1.556H88.654v-3.048h5.08v-1.476h-5.08V372.54ZM30.772,371l-3.481,10.327h1.865l.613-2.064H33.9l.618,2.064h1.861L32.851,371Zm2.674,6.772H30.224l1.622-5.364,1.556,5.22Zm4.181,3.557h1.717V371H37.628ZM70.313,371l-3.481,10.327H68.7l.611-2.065h4.131l.613,2.06h1.865L72.392,371Zm-.548,6.77,1.616-5.362,1.6,5.362Zm-46.917-5.23h5.029V371H21.12v10.327h1.727v-4.473h4.415v-1.463H22.847Zm41.036,4.522.064-.018a2.774,2.774,0,0,0,2-2.793,3.1,3.1,0,0,0-1.126-2.513c-.891-.721-1.791-.721-3.2-.737H58.373v10.325h1.733v-3.909h1.945l2.095,3.915h1.993l-2.32-4.244Zm-.541-1.338a2.661,2.661,0,0,1-1.134.255c-.373.018-.63.029-1.307.029h-.8v-3.53h1.023a4.858,4.858,0,0,1,2.139.239,1.616,1.616,0,0,1,.9,1.5h0v.018h0a1.518,1.518,0,0,1-.813,1.486ZM83.557,371.8A4.926,4.926,0,0,0,80.5,371H76.836v10.325H80.1a6.369,6.369,0,0,0,3.337-.628,4.929,4.929,0,0,0,2.11-4.442,5.348,5.348,0,0,0-1.986-4.456Zm.119,4.489c0,2.205-.846,2.937-1.643,3.24a7.178,7.178,0,0,1-2.507.245h-.949V372.57h1.167a4.864,4.864,0,0,1,2.26.3c1.531.737,1.678,2.414,1.678,3.407Zm-36.683.778.064-.018a2.777,2.777,0,0,0,2-2.793,3.1,3.1,0,0,0-1.122-2.515c-.895-.721-1.8-.721-3.205-.737H41.479v10.321h1.731v-3.909h1.945l2.091,3.913h2l-2.32-4.244Zm-.539-1.34a2.679,2.679,0,0,1-1.138.255c-.373.016-.63.031-1.307.031h-.8v-3.536H44.24a4.858,4.858,0,0,1,2.139.239,1.628,1.628,0,0,1,.9,1.507h-.016l.016.014h0a1.541,1.541,0,0,1-.821,1.486Zm3.2-3.155h2.857v8.752h1.75v-8.752h2.917V371H49.655Z" transform="translate(-0.832 -305.279)" fill="#fff"/>
  </g>
</svg>
